<svg xmlns="http://www.w3.org/2000/svg" width="24" height="24" viewBox="0 0 24 24" fill="none" stroke="currentColor" stroke-width="1.5" stroke-linecap="round" stroke-linejoin="round" aria-hidden="true">
  <circle cx="12" cy="12" r="2.6"/>
  <path d="M19.4 14.5a1.7 1.7 0 0 0 .34 1.87l.06.06a2 2 0 1 1-2.83 2.83l-.06-.06a1.7 1.7 0 0 0-1.87-.34 1.7 1.7 0 0 0-1.03 1.56V21a2 2 0 1 1-4 0v-.08a1.7 1.7 0 0 0-1.13-1.57 1.7 1.7 0 0 0-1.87.34l-.06.06a2 2 0 1 1-2.83-2.83l.06-.06a1.7 1.7 0 0 0 .34-1.87 1.7 1.7 0 0 0-1.56-1.03H3a2 2 0 1 1 0-4h.08a1.7 1.7 0 0 0 1.57-1.13 1.7 1.7 0 0 0-.34-1.87l-.06-.06a2 2 0 1 1 2.83-2.83l.06.06a1.7 1.7 0 0 0 1.87.34h.05A1.7 1.7 0 0 0 10 3.08V3a2 2 0 1 1 4 0v.08a1.7 1.7 0 0 0 1.03 1.56 1.7 1.7 0 0 0 1.87-.34l.06-.06a2 2 0 1 1 2.83 2.83l-.06.06a1.7 1.7 0 0 0-.34 1.87v.05A1.7 1.7 0 0 0 20.92 10H21a2 2 0 1 1 0 4h-.08a1.7 1.7 0 0 0-1.52 1.03z"/>
</svg>
